<svg width="14" height="10" viewBox="0 0 14 10" fill="none" xmlns="http://www.w3.org/2000/svg">
<path d="M10.3322 10C10.3322 10 9.9007 9.4881 9.5411 9.0357C11.1113 8.59525 11.7106 7.61905 11.7106 7.61905C11.2192 7.9405 10.7517 8.1667 10.3322 8.32145C9.7329 8.57145 9.15755 8.7381 8.5942 8.83335C7.4435 9.04765 6.3887 8.9881 5.48975 8.82145C4.8065 8.6905 4.21918 8.5 3.72774 8.30955C3.45205 8.2024 3.1524 8.07145 2.85274 7.9048C2.81678 7.88095 2.78082 7.86905 2.74486 7.84525C2.72089 7.83335 2.7089 7.82145 2.69692 7.80955C2.48116 7.6905 2.3613 7.60715 2.3613 7.60715C2.3613 7.60715 2.93665 8.55955 4.45891 9.0119C4.09932 9.4643 3.65582 10 3.65582 10C1.00685 9.91665 0 8.1905 0 8.1905C0 4.3572 1.72602 1.25008 1.72602 1.25008C3.45205 -0.035615 5.0942 9.89305e-05 5.0942 9.89305e-05L5.21405 0.142954C3.0565 0.761995 2.06165 1.70247 2.06165 1.70247C2.06165 1.70247 2.32534 1.5596 2.76884 1.35723C4.05137 0.79771 5.0702 0.64295 5.48975 0.607235C5.56165 0.59533 5.6216 0.583425 5.6935 0.583425C6.42465 0.488189 7.2517 0.46438 8.11475 0.559615C9.2534 0.69057 10.4761 1.0239 11.7226 1.70247C11.7226 1.70247 10.7757 0.809615 8.738 0.190573L8.9058 9.89305e-05C8.9058 9.89305e-05 10.5479 -0.035615 12.2739 1.25008C12.2739 1.25008 14 4.3572 14 8.1905C14 8.1905 12.9811 9.91665 10.3322 10ZM4.75856 4.44053C4.07534 4.44053 3.53596 5.03575 3.53596 5.76195C3.53596 6.48815 4.08733 7.08335 4.75856 7.08335C5.4418 7.08335 5.98115 6.48815 5.98115 5.76195C5.99315 5.03575 5.4418 4.44053 4.75856 4.44053ZM9.13355 4.44053C8.45035 4.44053 7.91095 5.03575 7.91095 5.76195C7.91095 6.48815 8.46235 7.08335 9.13355 7.08335C9.8168 7.08335 10.3561 6.48815 10.3561 5.76195C10.3561 5.03575 9.8168 4.44053 9.13355 4.44053Z" fill="white"/>
</svg>
