<svg width="12" height="11" viewBox="0 0 12 11" fill="none" xmlns="http://www.w3.org/2000/svg">
<path d="M10.1471 0H1.35294C0.605847 0 0 0.605712 0 1.35294V6.08823C0 6.83519 0.605847 7.44118 1.35294 7.44118H2.02941V9.80869C2.02941 9.89528 2.06242 9.98159 2.12885 10.048C2.26104 10.1802 2.47507 10.1803 2.60712 10.048L5.41177 7.44118H10.1471C10.894 7.44118 11.5 6.83519 11.5 6.0881V1.35294C11.5 0.605712 10.894 0 10.1471 0ZM2.36765 2.02941H7.77941C7.96639 2.02941 8.11765 2.18067 8.11765 2.36765C8.11765 2.55462 7.96639 2.70588 7.77941 2.70588H2.36765C2.18067 2.70588 2.02941 2.55462 2.02941 2.36765C2.02941 2.18067 2.18067 2.02941 2.36765 2.02941ZM5.07353 5.41176H2.36765C2.18067 5.41176 2.02941 5.26051 2.02941 5.07353C2.02941 4.88655 2.18067 4.73529 2.36765 4.73529H5.07353C5.26051 4.73529 5.41177 4.88655 5.41177 5.07353C5.41177 5.26051 5.26051 5.41176 5.07353 5.41176ZM9.13235 4.05882H2.36765C2.18067 4.05882 2.02941 3.90756 2.02941 3.72059C2.02941 3.53361 2.18067 3.38235 2.36765 3.38235H9.13235C9.31933 3.38235 9.47059 3.53361 9.47059 3.72059C9.47059 3.90756 9.31933 4.05882 9.13235 4.05882Z" fill="white"/>
</svg>
