<svg width="30" height="28" viewBox="0 0 30 28" fill="none" xmlns="http://www.w3.org/2000/svg">
<path fill-rule="evenodd" clip-rule="evenodd" d="M2.24169 14.1374C1.69507 14.6346 0.846038 14.5948 0.348131 14.0481C-0.149143 13.5015 -0.108652 12.6525 0.437337 12.1552L12.8932 0.814713C14.0858 -0.271571 15.9142 -0.271571 17.1068 0.814713L22.4211 5.65333V3.96095C22.4211 3.49341 22.8039 3.11065 23.2715 3.11065H25.1947C25.6623 3.11065 26.045 3.49341 26.045 3.96095V8.95267L29.5627 12.1552C30.1087 12.6525 30.1491 13.5015 29.6519 14.0481C29.154 14.5948 28.3049 14.6346 27.7583 14.1374C23.4505 10.2148 19.7222 6.82059 15.3024 2.79685C15.1329 2.64185 14.8671 2.64185 14.6976 2.79685L2.24169 14.1374Z" fill="#C2CC03"/>
<path d="M24.1657 26.3291H19.0859V18.1796V17.225H18.1313H11.868H10.9134V18.1796V26.3291H5.83361C5.37555 26.3291 4.99901 25.9528 4.99901 25.4938V15.0351L14.9996 5.93024L25.0003 15.0351V25.4938C25.0003 25.9528 24.6237 26.3291 24.1657 26.3291Z" stroke="#C2CC03" stroke-width="1.90915"/>
</svg>
