<svg width="26" height="28" viewBox="0 0 26 28" fill="none" xmlns="http://www.w3.org/2000/svg">
<path d="M0.101474 17.3545C0.000643229 17.7266 -0.0253803 18.115 0.0249097 18.4972C0.0751996 18.8794 0.200804 19.2478 0.394451 19.5812L1.76133 21.949C2.15102 22.622 2.79172 23.1131 3.54294 23.3145C4.29416 23.5159 5.09459 23.4112 5.76873 23.0234L6.368 22.6734C7.04695 23.1719 7.77778 23.5955 8.54776 23.9369V24.6348C8.54776 26.2664 9.87948 27.5981 11.4951 27.5981H14.2294C15.8456 27.5981 17.1773 26.2664 17.1773 24.6342V23.9364C17.9471 23.5948 18.6778 23.171 19.3565 22.6723L19.9584 23.0223C20.6323 23.4106 21.4326 23.5156 22.1838 23.3142C22.935 23.1129 23.5755 22.6217 23.9648 21.9484L25.3311 19.5806C25.7191 18.9064 25.8238 18.1058 25.6223 17.3544C25.4208 16.6031 24.9295 15.9623 24.2562 15.5727L23.651 15.2232C23.7484 14.3846 23.7484 13.5375 23.651 12.6988L24.2562 12.3494C24.9294 11.9597 25.4206 11.3189 25.6219 10.5675C25.8232 9.81612 25.7183 9.01556 25.3301 8.34146L23.9632 5.97367C23.5736 5.30049 22.9329 4.80931 22.1816 4.60789C21.4304 4.40647 20.6299 4.51125 19.9558 4.89924L19.357 5.24922C18.6781 4.75074 17.9473 4.32711 17.1773 3.98568V3.28839C17.1773 1.65624 15.8456 0.324524 14.2294 0.324524H11.4951C9.87948 0.324524 8.54776 1.65624 8.54776 3.28839V3.98621C7.77794 4.32784 7.04729 4.75166 6.36854 5.25028L5.76607 4.90031C5.4327 4.70757 5.06461 4.58244 4.68284 4.53208C4.30108 4.48172 3.91313 4.50711 3.54119 4.6068C3.16924 4.70649 2.8206 4.87852 2.51519 5.11306C2.20979 5.3476 1.95362 5.64005 1.76133 5.97367L0.394451 8.34146C0.00621934 9.01564 -0.0987486 9.81628 0.102575 10.5677C0.303898 11.3192 0.795073 11.9601 1.46835 12.3499L2.07348 12.6994C1.97616 13.538 1.97616 14.3851 2.07348 15.2238L1.46835 15.5732C1.13406 15.765 0.841136 16.0212 0.606513 16.327C0.371891 16.6327 0.200234 16.982 0.101474 17.3545ZM2.45648 17.2847L4.24684 16.2519L4.12219 15.5668C3.92925 14.5057 3.92925 13.4185 4.12219 12.3574L4.24684 11.6708L2.45702 10.6373C2.23727 10.5101 2.07696 10.3009 2.01125 10.0557C1.94554 9.81042 1.9798 9.5491 2.10651 9.32907L3.47391 6.9618C3.60096 6.74174 3.81016 6.5811 4.05557 6.51518C4.30097 6.44926 4.56251 6.48344 4.78273 6.61023L6.57682 7.64631L7.1095 7.19406C7.92615 6.49466 8.86384 5.95053 9.87628 5.58854L10.5187 5.35469V3.28839C10.5187 2.75571 10.9779 2.29547 11.4951 2.29547H14.2294C14.7472 2.29547 15.2063 2.75304 15.2063 3.28839V5.35469L15.8514 5.58907C16.8648 5.95124 17.8035 6.49533 18.6214 7.19459L19.1493 7.64631L20.9445 6.61023C21.1644 6.48386 21.4254 6.44979 21.6705 6.51549C21.9155 6.58118 22.1245 6.74129 22.2517 6.96074L23.6185 9.32853C23.7452 9.54857 23.7795 9.80988 23.7138 10.0551C23.6481 10.3004 23.4878 10.5096 23.268 10.6368L21.4782 11.6708L21.6029 12.3558C21.7958 13.4169 21.7958 14.5041 21.6029 15.5652L21.4782 16.2519L23.268 17.2853C23.4878 17.4125 23.6481 17.6217 23.7138 17.8669C23.7795 18.1122 23.7452 18.3735 23.6185 18.5936L22.2511 20.9608C22.1241 21.1809 21.9149 21.3415 21.6695 21.4074C21.4241 21.4734 21.1625 21.4392 20.9423 21.3124L19.1482 20.2763L18.6155 20.7286C17.7989 21.428 16.8612 21.9721 15.8488 22.3341L15.2063 22.5679V24.6342C15.2063 25.1669 14.7472 25.6272 14.2294 25.6272H11.4951C10.9773 25.6272 10.5187 25.1696 10.5187 24.6342V22.5679L9.87362 22.3336C8.86029 21.9714 7.92158 21.4273 7.10364 20.728L6.57575 20.2763L4.7806 21.3124C4.56061 21.4389 4.29942 21.4731 4.05429 21.4074C3.80915 21.3417 3.60007 21.1815 3.47285 20.9619L2.10597 18.593C1.97914 18.3729 1.94487 18.1114 2.01069 17.866C2.07651 17.6206 2.23704 17.4113 2.45702 17.2842L2.45648 17.2847Z" fill="#C2CC03"/>
<path d="M12.8627 19.8462C14.0266 19.8462 15.1645 19.5011 16.1323 18.8544C17.1001 18.2077 17.8544 17.2886 18.2998 16.2132C18.7452 15.1379 18.8618 13.9546 18.6347 12.813C18.4076 11.6714 17.8471 10.6227 17.0241 9.79969C16.201 8.97664 15.1524 8.41614 14.0108 8.18906C12.8692 7.96198 11.6859 8.07852 10.6105 8.52396C9.53516 8.96939 8.61603 9.7237 7.96936 10.6915C7.3227 11.6593 6.97754 12.7971 6.97754 13.9611C6.97923 15.5214 7.59981 17.0173 8.70312 18.1206C9.80643 19.224 11.3024 19.8445 12.8627 19.8462ZM12.8627 10.0528C13.6358 10.0528 14.3915 10.282 15.0344 10.7116C15.6772 11.1411 16.1782 11.7516 16.474 12.4659C16.7699 13.1802 16.8472 13.9662 16.6964 14.7244C16.5455 15.4827 16.1732 16.1792 15.6265 16.7258C15.0797 17.2724 14.3832 17.6447 13.6249 17.7955C12.8666 17.9462 12.0807 17.8687 11.3664 17.5728C10.6522 17.2769 10.0418 16.7758 9.61231 16.1329C9.18286 15.49 8.9537 14.7342 8.95381 13.9611C8.95494 12.9248 9.36712 11.9312 10.0999 11.1984C10.8327 10.4656 11.8263 10.0534 12.8627 10.0522V10.0528Z" fill="#C2CC03"/>
</svg>
