<svg width="26" height="28" viewBox="0 0 26 28" fill="none" xmlns="http://www.w3.org/2000/svg">
<path d="M12.9548 16.1927C14.3392 16.1927 15.4614 15.0704 15.4614 13.6861C15.4614 12.3017 14.3392 11.1795 12.9548 11.1795C11.5705 11.1795 10.4482 12.3017 10.4482 13.6861C10.4482 15.0704 11.5705 16.1927 12.9548 16.1927Z" fill="#C2CC03"/>
<path d="M12.9552 10.9201C13.275 10.9203 13.5923 10.9764 13.8929 11.0857V3.20649C13.5959 3.18148 13.2959 3.16586 12.9927 3.16586C12.6147 3.1675 12.237 3.18941 11.8613 3.23149V11.1514C12.2063 11.0001 12.5786 10.9214 12.9552 10.9201Z" fill="#C2CC03"/>
<path d="M6.23819 21.7529L11.7983 16.1865C11.1619 15.8915 10.6606 15.3667 10.395 14.7175L4.81299 20.3027C5.24045 20.8307 5.71772 21.3163 6.23819 21.7529Z" fill="#C2CC03"/>
<path d="M11.7952 11.186L6.23819 5.61954C5.71772 6.05612 5.24045 6.54176 4.81299 7.06975L10.3919 12.6487C10.6588 12.0018 11.1599 11.4794 11.7952 11.186Z" fill="#C2CC03"/>
<path d="M13.9927 16.2491L19.6028 21.8562C20.1288 21.4274 20.6123 20.9491 21.0468 20.4279L15.4648 14.8427C15.1697 15.4809 14.6436 15.9835 13.9927 16.2491Z" fill="#C2CC03"/>
<path d="M19.6028 5.51633L13.9927 11.1234C14.6419 11.389 15.1667 11.8903 15.4616 12.5267L21.0499 6.94466C20.6145 6.42325 20.1299 5.94494 19.6028 5.51633Z" fill="#C2CC03"/>
<path d="M12.9548 16.4523C12.5751 16.4523 12.1994 16.3735 11.8516 16.221V24.1409C12.2273 24.183 12.6049 24.2049 12.983 24.2065C13.2955 24.2065 13.5862 24.1909 13.8831 24.1659V16.2866C13.5855 16.3949 13.2715 16.451 12.9548 16.4523Z" fill="#C2CC03"/>
<path d="M23.222 13.6862C23.2222 12.7987 23.4829 11.9309 23.9718 11.1902C24.4608 10.4496 25.1564 9.86884 25.9724 9.51998C25.0893 6.76997 23.3559 4.37131 21.0221 2.66959C18.6883 0.967876 15.8745 0.0509644 12.9862 0.0509644C10.0979 0.0509644 7.2841 0.967876 4.95029 2.66959C2.61649 4.37131 0.883142 6.76997 0 9.51998C0.816575 9.86868 1.51272 10.4496 2.00199 11.1905C2.49126 11.9315 2.75209 12.7998 2.75209 13.6878C2.75209 14.5757 2.49126 15.444 2.00199 16.185C1.51272 16.9259 0.816575 17.5068 0 17.8555C0.883142 20.6055 2.61649 23.0042 4.95029 24.7059C7.2841 26.4076 10.0979 27.3245 12.9862 27.3245C15.8745 27.3245 18.6883 26.4076 21.0221 24.7059C23.3559 23.0042 25.0893 20.6055 25.9724 17.8555C25.1559 17.5065 24.46 16.9252 23.971 16.184C23.482 15.4427 23.2216 14.5742 23.222 13.6862ZM22.3031 6.16638C22.3387 6.09501 22.3946 6.03577 22.4638 5.99617C22.533 5.95658 22.6124 5.93839 22.692 5.94391C22.7715 5.94943 22.8476 5.97841 22.9107 6.02719C22.9738 6.07597 23.021 6.14236 23.0463 6.21796C23.0717 6.29356 23.074 6.37498 23.0531 6.45192C23.0322 6.52887 22.9889 6.59788 22.9288 6.65023C22.8686 6.70258 22.7943 6.73592 22.7152 6.74604C22.6361 6.75616 22.5558 6.7426 22.4844 6.70708C22.3893 6.65881 22.3169 6.57505 22.283 6.47388C22.2491 6.37271 22.2563 6.26225 22.3031 6.16638ZM18.2995 2.34397C18.3789 2.3452 18.4562 2.36989 18.5217 2.41493C18.5872 2.45998 18.6379 2.52337 18.6675 2.59714C18.697 2.67091 18.7041 2.75177 18.6879 2.82957C18.6716 2.90736 18.6327 2.97861 18.5761 3.03438C18.5195 3.09014 18.4476 3.12792 18.3696 3.14298C18.2916 3.15804 18.2108 3.14969 18.1375 3.119C18.0642 3.08831 18.0016 3.03664 17.9576 2.97048C17.9135 2.90432 17.89 2.82662 17.89 2.74715C17.8904 2.69379 17.9013 2.64104 17.9221 2.5919C17.9429 2.54276 17.9732 2.4982 18.0112 2.46076C18.0493 2.42332 18.0943 2.39373 18.1437 2.37369C18.1932 2.35366 18.2461 2.34355 18.2995 2.34397ZM12.5799 1.1563C12.6507 1.11955 12.7307 1.10461 12.81 1.11337C12.8892 1.12212 12.9641 1.15418 13.0251 1.20548C13.0862 1.25678 13.1306 1.32503 13.1529 1.4016C13.1751 1.47816 13.1742 1.5596 13.1501 1.63563C13.1261 1.71165 13.0801 1.77885 13.0179 1.82871C12.9556 1.87858 12.88 1.90888 12.8006 1.91578C12.7212 1.92268 12.6415 1.90588 12.5716 1.86749C12.5017 1.82911 12.4448 1.77086 12.408 1.70012C12.3595 1.60507 12.3503 1.49474 12.3825 1.39298C12.4147 1.29122 12.4856 1.20621 12.5799 1.1563ZM6.9541 2.68151C7.00077 2.61709 7.06544 2.56791 7.13999 2.54016C7.21454 2.51241 7.29563 2.50733 7.37306 2.52557C7.45049 2.5438 7.52079 2.58454 7.57512 2.64264C7.62945 2.70074 7.66538 2.77361 7.67839 2.85209C7.6914 2.93056 7.6809 3.01113 7.64822 3.08366C7.61554 3.15618 7.56214 3.21742 7.49473 3.25966C7.42733 3.3019 7.34893 3.32325 7.26942 3.32104C7.1899 3.31883 7.11282 3.29314 7.04787 3.24722C6.96011 3.18497 6.90062 3.09045 6.88245 2.9844C6.86429 2.87835 6.88893 2.76942 6.95098 2.68151H6.9541ZM2.61912 6.59144C2.63174 6.51285 2.66735 6.43976 2.72144 6.38138C2.77554 6.32299 2.84571 6.28192 2.9231 6.26334C3.0005 6.24477 3.08166 6.24952 3.15636 6.27699C3.23107 6.30446 3.29596 6.35343 3.34288 6.41773C3.3898 6.48203 3.41664 6.55877 3.42002 6.63829C3.42339 6.71781 3.40315 6.79656 3.36185 6.8646C3.32055 6.93264 3.26004 6.98693 3.18793 7.02064C3.11583 7.05434 3.03536 7.06595 2.95667 7.054C2.85073 7.03708 2.75579 6.97895 2.69256 6.89229C2.62932 6.80563 2.60292 6.69749 2.61912 6.59144ZM3.38798 20.9278C3.35023 20.998 3.29255 21.0554 3.22221 21.0928C3.15188 21.1302 3.07203 21.1459 2.99277 21.138C2.9135 21.13 2.83836 21.0988 2.77683 21.0482C2.7153 20.9976 2.67014 20.9299 2.64705 20.8537C2.62396 20.7774 2.62397 20.6961 2.64709 20.6198C2.6702 20.5436 2.71539 20.4759 2.77693 20.4253C2.83848 20.3747 2.91363 20.3435 2.9929 20.3356C3.07217 20.3277 3.152 20.3435 3.22233 20.3809C3.3164 20.4319 3.38655 20.5179 3.41756 20.6203C3.44858 20.7227 3.43795 20.8332 3.38798 20.9278ZM7.28853 24.8659C7.20895 24.864 7.1317 24.8387 7.06652 24.793C7.00133 24.7473 6.95114 24.6833 6.92225 24.6091C6.89336 24.535 6.88708 24.4539 6.9042 24.3761C6.92131 24.2984 6.96105 24.2275 7.01841 24.1723C7.07578 24.1171 7.14819 24.0801 7.22654 24.066C7.30488 24.0519 7.38564 24.0613 7.45865 24.093C7.53166 24.1248 7.59364 24.1774 7.63678 24.2443C7.67992 24.3112 7.7023 24.3894 7.70109 24.469C7.69944 24.5762 7.65548 24.6784 7.57878 24.7533C7.50209 24.8283 7.39888 24.8699 7.29165 24.869L7.28853 24.8659ZM12.9643 26.2192C12.8926 26.2537 12.8122 26.2661 12.7334 26.255C12.6545 26.2439 12.5808 26.2097 12.5214 26.1567C12.4619 26.1037 12.4195 26.0343 12.3995 25.9572C12.3795 25.8802 12.3827 25.7989 12.4088 25.7237C12.4349 25.6485 12.4827 25.5826 12.5461 25.5345C12.6095 25.4864 12.6858 25.4582 12.7653 25.4533C12.8447 25.4485 12.9239 25.4673 12.9927 25.5074C13.0615 25.5475 13.1168 25.607 13.1519 25.6785C13.1982 25.7751 13.2046 25.8862 13.1694 25.9875C13.1343 26.0887 13.0606 26.172 12.9643 26.2192ZM18.637 24.8565C18.5885 24.9198 18.5223 24.9672 18.4468 24.9929C18.3714 25.0185 18.29 25.0212 18.213 25.0006C18.136 24.98 18.0668 24.9371 18.0142 24.8772C17.9616 24.8173 17.9279 24.7431 17.9174 24.6641C17.9069 24.5851 17.9201 24.5047 17.9553 24.4332C17.9905 24.3617 18.0461 24.3022 18.1151 24.2622C18.184 24.2223 18.2633 24.2037 18.3429 24.2087C18.4224 24.2138 18.4987 24.2424 18.562 24.2908C18.6463 24.3563 18.7015 24.4524 18.7155 24.5583C18.7296 24.6641 18.7014 24.7713 18.637 24.8565ZM12.9862 24.469C10.9547 24.4691 8.96439 23.8953 7.2447 22.8138C5.525 21.7322 4.14583 20.1868 3.26609 18.3556C4.41104 17.0691 5.04359 15.4068 5.04359 13.6846C5.04359 11.9624 4.41104 10.3002 3.26609 9.01366C4.1412 7.19403 5.5095 5.65658 7.2153 4.57625C8.92109 3.49592 10.8959 2.91609 12.915 2.90274C14.934 2.88938 16.9163 3.44305 18.6363 4.50072C20.3562 5.5584 21.7447 7.07762 22.6438 8.88551C21.4266 10.1871 20.7494 11.9026 20.7494 13.6846C20.7494 15.4667 21.4266 17.1822 22.6438 18.4837C21.751 20.2817 20.3739 21.7946 18.6676 22.852C16.9613 23.9095 14.9936 24.4695 12.9862 24.469ZM22.6063 21.3998C22.5278 21.3844 22.4557 21.3461 22.399 21.2896C22.3424 21.2331 22.3038 21.161 22.2883 21.0826C22.2727 21.0041 22.2808 20.9228 22.3116 20.8489C22.3424 20.7751 22.3944 20.7121 22.4611 20.6679C22.5278 20.6238 22.6061 20.6005 22.6861 20.6009C22.7661 20.6014 22.8442 20.6257 22.9103 20.6706C22.9765 20.7156 23.0278 20.7792 23.0577 20.8534C23.0876 20.9276 23.0947 21.009 23.0783 21.0872C23.0557 21.1905 22.9938 21.2809 22.9057 21.3392C22.8176 21.3976 22.7102 21.4193 22.6063 21.3998Z" fill="#C2CC03"/>
</svg>
