<svg width="24" height="29" viewBox="0 0 24 29" fill="none" xmlns="http://www.w3.org/2000/svg">
<path d="M22.2155 0.777374H3.62115C2.84519 0.777374 2.18419 1.40964 2.18419 2.21434V4.85835H0.833439C0.373611 4.85835 0 5.23196 0 5.69179V7.10002C0 7.55984 0.373611 7.93345 0.833439 7.93345H2.18419V10.2039H0.833439C0.373611 10.2039 0 10.5775 0 11.0373V12.4455C0 12.9053 0.373611 13.279 0.833439 13.279H2.18419V15.5494H0.833439C0.373611 15.5494 0 15.923 0 16.3828V17.791C0 18.2509 0.373611 18.6245 0.833439 18.6245H2.18419V20.8949H0.833439C0.373611 20.8949 0 21.2685 0 21.7283V23.1365C0 23.5964 0.373611 23.97 0.833439 23.97H2.18419V26.614C2.18419 27.3899 2.81645 28.051 3.62115 28.051H22.2155C22.9914 28.051 23.6524 27.4187 23.6524 26.614V2.21434C23.6237 1.40964 22.9914 0.777374 22.2155 0.777374ZM15.5479 18.9693H10.2599C9.80009 18.9693 9.42648 18.5957 9.42648 18.1359C9.42648 17.6761 9.80009 17.3025 10.2599 17.3025H15.5479C16.0078 17.3025 16.3814 17.6761 16.3814 18.1359C16.3814 18.5957 16.0078 18.9693 15.5479 18.9693ZM17.3585 15.262H8.44935C7.98952 15.262 7.61591 14.8884 7.61591 14.4285C7.61591 13.9687 7.98952 13.5951 8.44935 13.5951H17.3585C17.8184 13.5951 18.192 13.9687 18.192 14.4285C18.192 14.8884 17.8184 15.262 17.3585 15.262ZM18.4506 10.52C18.4506 10.8936 18.1632 11.181 17.7896 11.181H8.01826C7.64465 11.181 7.35726 10.8936 7.35726 10.52V6.55397C7.35726 6.18036 7.64465 5.89297 8.01826 5.89297H17.7896C18.1632 5.89297 18.4506 6.18036 18.4506 6.55397V10.52Z" fill="#C2CC03"/>
</svg>
