<svg width="30" height="30" viewBox="0 0 30 30" fill="none" xmlns="http://www.w3.org/2000/svg">
<path d="M3.24549 15.1496L21.183 23.2364C21.2497 23.2666 21.3096 23.31 21.359 23.3641C21.4084 23.4182 21.4462 23.4818 21.4701 23.5511C21.4941 23.6203 21.5036 23.6936 21.4982 23.7667C21.4928 23.8397 21.4725 23.9109 21.4386 23.9758L20.5955 25.5896C20.5353 25.7052 20.4468 25.8037 20.3383 25.876C20.2298 25.9482 20.1048 25.9918 19.9749 26.0027C17.9567 26.1671 9.26362 26.1971 2.92799 15.4964C2.90413 15.4509 2.89488 15.3991 2.9015 15.3482C2.90812 15.2972 2.93029 15.2495 2.965 15.2116C2.99971 15.1737 3.04526 15.1474 3.09545 15.1363C3.14565 15.1252 3.19804 15.1298 3.24549 15.1496Z" fill="#C2CC03"/>
<path d="M28.7534 27.2859C28.5077 27.2622 28.2613 27.324 28.0559 27.4609L24.7959 25.544C24.6008 25.4298 24.4546 25.2475 24.3854 25.0322C24.3162 24.8169 24.3289 24.5837 24.4209 24.3771L24.9172 23.2678C24.9646 23.1627 24.9686 23.0431 24.9283 22.9351C24.888 22.8271 24.8068 22.7393 24.7022 22.6909C24.4191 22.5595 24.0956 22.5449 23.8018 22.6502C23.508 22.7554 23.2674 22.9721 23.1322 23.2534L20.9653 27.8109C20.8986 27.9521 20.8604 28.105 20.8529 28.261C20.8454 28.4169 20.8688 28.5728 20.9216 28.7198C20.9744 28.8667 21.0557 29.0018 21.1608 29.1173C21.2659 29.2327 21.3927 29.3264 21.534 29.3928L21.659 29.4521C21.7118 29.4769 21.769 29.491 21.8272 29.4934C21.8854 29.4958 21.9436 29.4865 21.9982 29.4661C22.0528 29.4458 22.1028 29.4147 22.1452 29.3747C22.1877 29.3347 22.2217 29.2867 22.2453 29.2334L22.8653 27.8646C22.959 27.6552 23.1277 27.4884 23.3382 27.3971C23.5488 27.3058 23.7859 27.2967 24.0028 27.3715L27.6022 28.6128C27.6484 28.8057 27.7469 28.9822 27.8869 29.1228C28.0269 29.2635 28.2029 29.3628 28.3956 29.41C28.5883 29.4572 28.7903 29.4504 28.9794 29.3903C29.1685 29.3302 29.3374 29.2192 29.4676 29.0694C29.5977 28.9196 29.6841 28.7369 29.7172 28.5413C29.7504 28.3457 29.729 28.1447 29.6554 27.9604C29.5818 27.7761 29.4589 27.6157 29.3001 27.4967C29.1413 27.3777 28.9528 27.3048 28.7553 27.2859H28.7534Z" fill="#C2CC03"/>
<path d="M0.977115 27.2859C1.22386 27.2615 1.47145 27.3233 1.67774 27.4609L4.93774 25.544C5.1329 25.4298 5.27906 25.2475 5.34825 25.0322C5.41744 24.8169 5.4048 24.5837 5.31274 24.3771L4.81649 23.2678C4.7691 23.1627 4.76509 23.0431 4.80535 22.9351C4.84561 22.8271 4.92688 22.7393 5.03149 22.6909C5.3146 22.5595 5.63804 22.5449 5.93185 22.6502C6.22566 22.7554 6.46622 22.9721 6.60149 23.2534L8.76836 27.8109C8.83504 27.9521 8.87322 28.105 8.88072 28.261C8.88822 28.4169 8.86489 28.5728 8.81206 28.7198C8.75923 28.8667 8.67795 29.0018 8.57285 29.1173C8.46776 29.2327 8.34093 29.3264 8.19962 29.3928L8.07462 29.4521C8.02187 29.4769 7.96469 29.491 7.90645 29.4934C7.8482 29.4958 7.79007 29.4865 7.73545 29.4661C7.68084 29.4458 7.63085 29.4147 7.58842 29.3747C7.54598 29.3347 7.51197 29.2867 7.48837 29.2334L6.86524 27.8646C6.77156 27.6552 6.60283 27.4884 6.39229 27.3971C6.18175 27.3058 5.94467 27.2967 5.72774 27.3715L2.13024 28.6128C2.08398 28.8057 1.98546 28.9822 1.8455 29.1228C1.70553 29.2635 1.52952 29.3628 1.3368 29.41C1.14407 29.4572 0.942073 29.4504 0.752971 29.3903C0.563869 29.3302 0.394973 29.2192 0.26482 29.0694C0.134666 28.9196 0.048286 28.7369 0.015159 28.5413C-0.0179681 28.3457 0.00343864 28.1447 0.0770297 27.9604C0.150621 27.7761 0.273552 27.6157 0.432331 27.4967C0.59111 27.3777 0.7796 27.3048 0.977115 27.2859Z" fill="#C2CC03"/>
<path d="M8.78606 23.4907C8.7292 23.45 8.66139 23.4274 8.59149 23.4259C8.52159 23.4243 8.45285 23.4439 8.39426 23.482C8.33566 23.5202 8.28993 23.5751 8.26305 23.6397C8.23616 23.7042 8.22937 23.7754 8.24356 23.8438C8.25383 23.8898 8.27023 23.9341 8.29231 23.9757L9.13544 25.5894C9.19562 25.7051 9.2841 25.8036 9.39261 25.8758C9.50113 25.9481 9.62616 25.9917 9.75606 26.0026C10.6379 26.0663 11.5238 26.0433 12.4011 25.9338C12.4445 25.9315 12.4857 25.9141 12.5177 25.8847C12.5497 25.8553 12.5705 25.8157 12.5766 25.7727C12.5826 25.7297 12.5735 25.6859 12.5509 25.6488C12.5282 25.6117 12.4934 25.5837 12.4523 25.5694C11.1569 25.0147 9.92721 24.3175 8.78606 23.4907Z" fill="#C2CC03"/>
<path d="M26.4853 15.1496L16.5709 19.6214C16.5208 19.6441 16.4783 19.6807 16.4485 19.7268C16.4187 19.773 16.4028 19.8268 16.4028 19.8818C16.4028 19.9367 16.4187 19.9905 16.4485 20.0367C16.4783 20.0829 16.5208 20.1195 16.5709 20.1421L20.709 22.0077C20.8353 22.0648 20.975 22.0852 21.1123 22.0665C21.2496 22.0478 21.3789 21.9908 21.4853 21.9021C23.3109 20.3783 25.1372 18.3089 26.8028 15.4964C26.8266 15.4509 26.8359 15.3991 26.8293 15.3482C26.8227 15.2972 26.8005 15.2495 26.7658 15.2116C26.7311 15.1737 26.6855 15.1474 26.6353 15.1363C26.5851 15.1252 26.5327 15.1298 26.4853 15.1496Z" fill="#C2CC03"/>
<path d="M17.5015 12.7819C17.4894 12.7119 17.4608 12.6459 17.4179 12.5892C17.375 12.5326 17.3192 12.4871 17.2551 12.4565C17.191 12.4259 17.1205 12.4111 17.0496 12.4133C16.9786 12.4156 16.9092 12.4348 16.8471 12.4694L15.6321 13.1513C15.384 13.2905 15.1042 13.3636 14.8196 13.3636C14.5351 13.3636 14.2553 13.2905 14.0071 13.1513L12.7921 12.4694C12.7302 12.4348 12.6608 12.4156 12.5898 12.4133C12.5189 12.4111 12.4484 12.4259 12.3844 12.4565C12.3204 12.4871 12.2646 12.5326 12.2218 12.5892C12.179 12.6459 12.1504 12.7119 12.1384 12.7819C11.8596 14.375 12.0759 16.1869 12.2009 16.9888C12.2206 17.1162 12.2731 17.2363 12.3532 17.3373C12.4333 17.4383 12.5382 17.5168 12.6578 17.565L14.3996 18.2707C14.6692 18.3797 14.9707 18.3797 15.2403 18.2707L16.9828 17.5644C17.1021 17.5158 17.2069 17.4372 17.287 17.3362C17.3672 17.2353 17.4199 17.1154 17.4403 16.9882C17.564 16.1838 17.7796 14.3744 17.5015 12.7819Z" fill="#C2CC03"/>
<path d="M12.6972 9.71681H12.7554C13.0467 9.71638 13.3329 9.7943 13.5838 9.94241C13.8347 10.0905 14.0412 10.3034 14.1816 10.5587C14.207 10.6049 14.22 10.657 14.2191 10.7098C14.2183 10.7625 14.2037 10.8142 14.1768 10.8596C14.1499 10.905 14.1117 10.9427 14.0659 10.9688C14.02 10.9949 13.9681 11.0087 13.9154 11.0087H13.3029C13.0937 11.0102 12.8888 10.9492 12.7146 10.8335C12.5403 10.7178 12.4046 10.5527 12.3247 10.3593C12.3122 10.3281 12.3004 10.2968 12.2897 10.2606C12.2708 10.1972 12.2669 10.1304 12.2785 10.0653C12.2901 10.0002 12.3167 9.9388 12.3564 9.88592C12.396 9.83304 12.4475 9.79019 12.5067 9.76082C12.5659 9.73145 12.6312 9.71637 12.6972 9.71681Z" fill="#C2CC03"/>
<path d="M25.4453 12.9494C25.0334 12.4538 24.3722 11.8562 23.4409 11.5938L23.3834 11.5731C22.7465 11.3354 22.1975 10.9087 21.81 10.3502C21.4225 9.79161 21.215 9.12794 21.2153 8.44812V6.38563C21.2153 2.93438 18.4753 0.073125 15.0247 0C14.9572 0 14.8884 0 14.8197 0C14.7478 0 14.6766 0 14.6059 0C11.1591 0.07375 8.42407 2.9375 8.42407 6.385V8.4475C8.42499 9.13132 8.21561 9.79889 7.8243 10.3597C7.433 10.9205 6.8787 11.3474 6.23657 11.5825L6.19719 11.5963C5.26532 11.8588 4.60407 12.4563 4.1922 12.9519C4.1211 13.0375 4.07093 13.1386 4.04563 13.247C4.02033 13.3554 4.0206 13.4682 4.04643 13.5765C4.07226 13.6848 4.12294 13.7856 4.19445 13.8709C4.26596 13.9563 4.35634 14.0238 4.45844 14.0681L9.9672 16.4775C10.0508 16.5143 10.1424 16.5292 10.2334 16.5205C10.3243 16.5119 10.4116 16.4802 10.4868 16.4283C10.562 16.3764 10.6226 16.3061 10.663 16.2241C10.7033 16.1422 10.722 16.0512 10.7172 15.96C10.4166 10.075 12.4122 7.56 13.7866 6.535C14.0847 6.31166 14.4472 6.19094 14.8197 6.19094C15.1922 6.19094 15.5547 6.31166 15.8528 6.535C17.2278 7.56 19.2234 10.075 18.9222 15.96C18.9174 16.0512 18.9361 16.1422 18.9764 16.2241C19.0168 16.3061 19.0774 16.3764 19.1526 16.4283C19.2278 16.4802 19.315 16.5119 19.406 16.5205C19.497 16.5292 19.5886 16.5143 19.6722 16.4775L25.1778 14.0656C25.2799 14.0213 25.3703 13.9538 25.4419 13.8685C25.5135 13.7833 25.5642 13.6825 25.5902 13.5743C25.6161 13.466 25.6165 13.3532 25.5914 13.2447C25.5663 13.1363 25.5162 13.0352 25.4453 12.9494Z" fill="#C2CC03"/>
<path d="M16.9422 9.7168H16.884C16.5928 9.71648 16.3068 9.79445 16.056 9.94256C15.8052 10.0907 15.5988 10.3035 15.4584 10.5587C15.433 10.6049 15.4201 10.657 15.4209 10.7098C15.4218 10.7625 15.4364 10.8142 15.4632 10.8596C15.4901 10.905 15.5283 10.9427 15.5742 10.9688C15.62 10.9949 15.6719 11.0087 15.7247 11.0087H16.334C16.5432 11.0102 16.7481 10.9492 16.9224 10.8335C17.0966 10.7178 17.2324 10.5527 17.3122 10.3593C17.3247 10.328 17.3365 10.2968 17.3472 10.2605C17.3661 10.1974 17.37 10.1308 17.3585 10.0659C17.3471 10.001 17.3206 9.93975 17.2813 9.88692C17.2419 9.83409 17.1908 9.79119 17.1319 9.76166C17.073 9.73212 17.008 9.71676 16.9422 9.7168Z" fill="#C2CC03"/>
</svg>
